<?xml version="1.0" encoding="UTF-8" standalone="no"?><!DOCTYPE svg PUBLIC "-//W3C//DTD SVG 1.1//EN" "http://www.w3.org/Graphics/SVG/1.1/DTD/svg11.dtd"><svg width="100%" height="100%" viewBox="0 0 48 48" version="1.1" xmlns="http://www.w3.org/2000/svg" xmlns:xlink="http://www.w3.org/1999/xlink" xml:space="preserve" xmlns:serif="http://www.serif.com/" style="fill-rule:evenodd;clip-rule:evenodd;stroke-linejoin:round;stroke-miterlimit:2;"><path d="M22.65,34l3,0l0,-8.3l8.35,0l0,-3l-8.35,0l0,-8.7l-3,0l0,8.7l-8.65,0l0,3l8.65,0l0,8.3Zm1.363,10c-2.757,0 -5.349,-0.525 -7.775,-1.575c-2.425,-1.05 -4.546,-2.483 -6.363,-4.3c-1.817,-1.817 -3.25,-3.939 -4.3,-6.367c-1.05,-2.428 -1.575,-5.022 -1.575,-7.783c0,-2.761 0.525,-5.355 1.575,-7.783c1.05,-2.428 2.483,-4.542 4.3,-6.342c1.817,-1.8 3.939,-3.225 6.367,-4.275c2.428,-1.05 5.022,-1.575 7.783,-1.575c2.761,0 5.355,0.525 7.783,1.575c2.428,1.05 4.542,2.475 6.342,4.275c1.8,1.8 3.225,3.917 4.275,6.35c1.05,2.433 1.575,5.029 1.575,7.787c-0,2.758 -0.525,5.349 -1.575,7.775c-1.05,2.425 -2.475,4.543 -4.275,6.354c-1.8,1.81 -3.917,3.244 -6.35,4.3c-2.433,1.056 -5.029,1.584 -7.787,1.584Zm0.012,-3c4.717,0 8.725,-1.658 12.025,-4.975c3.3,-3.317 4.95,-7.333 4.95,-12.05c-0,-4.717 -1.647,-8.725 -4.941,-12.025c-3.293,-3.3 -7.313,-4.95 -12.059,-4.95c-4.7,0 -8.708,1.647 -12.025,4.941c-3.317,3.293 -4.975,7.313 -4.975,12.059c-0,4.7 1.658,8.708 4.975,12.025c3.317,3.317 7.333,4.975 12.05,4.975Z" style="fill:#46086f;fill-rule:nonzero;"/></svg>