<?xml version="1.0" encoding="UTF-8" standalone="no"?><!DOCTYPE svg PUBLIC "-//W3C//DTD SVG 1.1//EN" "http://www.w3.org/Graphics/SVG/1.1/DTD/svg11.dtd"><svg width="100%" height="100%" viewBox="0 0 48 48" version="1.1" xmlns="http://www.w3.org/2000/svg" xmlns:xlink="http://www.w3.org/1999/xlink" xml:space="preserve" xmlns:serif="http://www.serif.com/" style="fill-rule:evenodd;clip-rule:evenodd;stroke-linejoin:round;stroke-miterlimit:2;"><path d="M9,39l2.2,0l22.15,-22.15l-2.2,-2.2l-22.15,22.15l0,2.2Zm30.7,-24.3l-6.4,-6.4l2.1,-2.1c0.567,-0.567 1.267,-0.85 2.1,-0.85c0.833,0 1.533,0.283 2.1,0.85l2.2,2.2c0.567,0.567 0.85,1.267 0.85,2.1c0,0.833 -0.283,1.533 -0.85,2.1l-2.1,2.1Zm-2.1,2.1l-25.2,25.2l-6.4,0l-0,-6.4l25.2,-25.2l6.4,6.4Zm-4.25,0.05l-2.2,-2.2l2.2,2.2Z" style="fill:#46086f;fill-rule:nonzero;"/></svg>